#!OML:ASF H:\Pregnant\Project 1\Capture day 1\Session 1\femalepreg.ASF
:FULLY-SPECIFIED
:DEGREES
546
root 5.31033 15.3974 28.1564 132.229 -82.9105 -112.582
lowerback -13.7883 1.48298 4.09736
upperback -6.1316 1.04923 2.12223
thorax 1.30893 0.333164 0.0552821
lowerneck -21.5409 6.66322 6.25678
upperneck 21.4069 3.99441 10.8275
head 10.4406 3.58221 3.46182
rclavicle 3.31625e-015 1.70831e-014
rhumerus -54.9522 -31.0863 -27.2624
rradius 40.4736
rwrist -31.6969
rhand -18.398 -34.8091
rfingers 7.12502
rthumb 7.8862 -64.642
lclavicle 3.31625e-015 1.70831e-014
lhumerus -51.1502 36.3802 19.9809
lradius 44.1681
lwrist 71.4223
lhand -22.9961 11.7889
lfingers 7.12502
lthumb 3.4469 41.7408
rfemur -29.4542 8.54822 25.789
rtibia 31.0172
rfoot -19.9225 -7.79308
rtoes 1.15133
lfemur -33.2558 -15.2742 6.89369
ltibia 13.9607
lfoot -0.132794 19.7748
ltoes -20.3444
547
root 5.2825 15.4156 28.19 132.592 -82.769 -113.052
lowerback -13.8848 1.47794 4.28568
upperback -6.22062 1.00325 2.20347
thorax 1.26669 0.301694 0.0286145
lowerneck -21.5105 6.70095 6.26022
upperneck 21.6348 4.17705 10.3254
head 10.5168 3.61847 3.31697
rclavicle 2.27166e-015 -1.717e-014
rhumerus -54.7598 -31.109 -28.9021
rradius 40.3383
rwrist -31.9138
rhand -18.5388 -35.133
rfingers 7.12502
rthumb 7.7503 -64.9709
lclavicle 2.27166e-015 -1.717e-014
lhumerus -51.5181 35.7032 21.2116
lradius 43.6981
lwrist 71.156
lhand -23.0399 11.7411
lfingers 7.12502
lthumb 3.40453 41.6937
rfemur -28.7766 9.30185 25.6327
rtibia 30.1896
rfoot -19.6008 -8.51627
rtoes 0.865203
lfemur -32.9067 -15.8095 6.9808
ltibia 13.7703
lfoot -0.186959 20.3435
ltoes -19.9723
548
root 5.25351 15.4333 28.2248 132.959 -82.6349 -113.512
lowerback -14.0031 1.47396 4.46844
upperback -6.31485 0.956943 2.28682
thorax 1.2302 0.269659 0.00756892
lowerneck -21.4879 6.73909 6.26443
upperneck 21.8864 4.3611 9.81324
head 10.605 3.65396 3.17002
rclavicle 1.15655e-014 5.86415e-015
rhumerus -54.5504 -31.1856 -30.4432
rradius 40.0701
rwrist -31.8527
rhand -18.5093 -35.5213
rfingers 7.12502
rthumb 7.77877 -65.3582
lclavicle 1.15655e-014 5.86415e-015
lhumerus -51.8496 35.0369 22.5153
lradius 43.1643
lwrist 70.9911
lhand -23.2756 11.5924
lfingers 7.12502
lthumb 3.17693 41.5485
rfemur -28.1125 10.0146 25.4727
rtibia 29.3627
rfoot -19.2816 -9.19428
rtoes 0.594907
lfemur -32.568 -16.2955 7.03602
ltibia 13.5744
lfoot -0.213355 20.8579
ltoes -19.5562
549
root 5.2234 15.4502 28.2611 133.326 -82.4997 -113.959
lowerback -14.14 1.47447 4.65346
upperback -6.41571 0.913968 2.37021
thorax 1.19645 0.238626 -0.0139226
lowerneck -21.4703 6.77727 6.27811
upperneck 22.1575 4.5425 9.29581
head 10.7036 3.6876 3.02022
rclavicle -4.14264e-015 -1.2424e-014
rhumerus -54.3477 -31.3368 -31.8796
rradius 39.6866
rwrist -31.4753
rhand -18.3118 -35.9649
rfingers 7.12502
rthumb 7.96944 -65.7947
lclavicle -4.14264e-015 -1.2424e-014
lhumerus -52.1395 34.3877 23.8721
lradius 42.5605
lwrist 70.8765
lhand -23.6629 11.512
lfingers 7.12502
lthumb 2.80295 41.4733
rfemur -27.4611 10.6631 25.3205
rtibia 28.5345
rfoot -18.9714 -9.79082
rtoes 0.376301
lfemur -32.2345 -16.727 7.06844
ltibia 13.3702
lfoot -0.213116 21.3197
ltoes -19.1498
550
root 5.19224 15.4664 28.2988 133.687 -82.3624 -114.385
lowerback -14.2945 1.47879 4.84481
upperback -6.52292 0.872826 2.45296
thorax 1.16519 0.207747 -0.0390964
lowerneck -21.4564 6.81537 6.2977
upperneck 22.4446 4.72016 8.78301
head 10.811 3.71948 2.87124
rclavicle 4.12789e-015 1.2921e-014
rhumerus -54.1472 -31.5482 -33.2317
rradius 39.2015
rwrist -30.793
rhand -18.0619 -36.3982
rfingers 7.12502
rthumb 8.21055 -66.2186
lclavicle 4.12789e-015 1.2921e-014
lhumerus -52.3941 33.7629 25.2653
lradius 41.8823
lwrist 70.7507
lhand -24.1413 11.5444
lfingers 7.12502
lthumb 2.34092 41.5114
rfemur -26.8219 11.2592 25.1739
rtibia 27.7047
rfoot -18.6693 -10.3217
rtoes 0.193351
lfemur -31.9064 -17.0912 7.07476
ltibia 13.1605
lfoot -0.179377 21.7189
ltoes -18.8096
